<mxfile host="app.diagrams.net" modified="2023-11-23T17:31:54.977Z" agent="Mozilla/5.0 (Macintosh; Intel Mac OS X 10.15; rv:109.0) Gecko/20100101 Firefox/119.0" version="22.1.3" etag="nOMv9l7k445ZvXox2d4x" type="github">
  <diagram name="Page-1" id="TacNgpGX7oatq606pXro">
    <mxGraphModel>
      <root>
        <mxCell id="0" />
        <mxCell id="1" parent="0" />
      </root>
    </mxGraphModel>
  </diagram>
</mxfile>
